# xmcd
# 
# Track frame offsets:
#     150
#     16807
#     33362
#     51588
#     62720
#     77417
#     94676
#     111016
#     128219
#     143029
#     160325
#     178347
#     192147
#     208581
#     228781
#     249627
# 
# Disc length: 3508
# 
# Revision: 6
# Processed by: cddbd v1.5.2PL0 Copyright (c) Steve Scherf et al.
# Submitted via: fre:ac v1.0.17
# 
DISCID=d40db210
DTITLE=Bruno Mars doo-wops and hooligans - doo-wops and hooligans - WPCR-13979
DYEAR=2011
DGENRE=Blues
TTITLE0=grenade
TTITLE1=just the way you are
TTITLE2=our first time
TTITLE3=runaway baby
TTITLE4=the lazy song
TTITLE5=marry you
TTITLE6=talking to the moon
TTITLE7=liquor store blues (feat. Damian Marley)
TTITLE8=count on me
TTITLE9=the other side (feat. Cee Lo Green and B.o.B)
TTITLE10=just the way you are (feat. Lupe Fiasco) [remix]
TTITLE11=somewhere in brooklyn [ep version]
TTITLE12=talking to the moon [acoustic piano version]
TTITLE13=just the way you are [walmart soundcheck version]-live
TTITLE14=grenade [walmart soundcheck version]-live
TTITLE15=the other side [walmart soundcheck version]-live
EXTD=YEAR: 2011
EXTT0=
EXTT1=
EXTT2=
EXTT3=
EXTT4=
EXTT5=
EXTT6=
EXTT7=
EXTT8=
EXTT9=
EXTT10=
EXTT11=
EXTT12=
EXTT13=
EXTT14=
EXTT15=
PLAYORDER=
